HIERARCHY
ROOT Hips
{
	OFFSET 0.000000 0.000000 0.000000 
	CHANNELS 6 Xposition Yposition Zposition Zrotation Yrotation Xrotation
	JOINT LeftUpLeg
	{
		OFFSET 1.363060 -1.794630 0.839290 
		CHANNELS 3 Zrotation Yrotation Xrotation
		JOINT LeftLeg
		{
			OFFSET 2.448110 -6.726130 0.000000 
			CHANNELS 3 Zrotation Yrotation Xrotation
			JOINT LeftFoot
			{
				OFFSET 2.562200 -7.039590 0.000000 
				CHANNELS 3 Zrotation Yrotation Xrotation
				JOINT LeftToeBase
				{
					OFFSET 0.157640 -0.433110 2.322550 
					CHANNELS 3 Zrotation Yrotation Xrotation
					End Site
					{
						OFFSET 0.000000 0.000000 0.000000 
					}
				}
			}
		}
	}
	JOINT RightUpLeg
	{
		OFFSET -1.305520 -1.794630 0.839290 
		CHANNELS 3 Zrotation Yrotation Xrotation
		JOINT RightLeg
		{
			OFFSET -2.542530 -6.985550 0.000000 
			CHANNELS 3 Zrotation Yrotation Xrotation
			JOINT RightFoot
			{
				OFFSET -2.568260 -7.056230 0.000000 
				CHANNELS 3 Zrotation Yrotation Xrotation
				JOINT RightToeBase
				{
					OFFSET -0.164730 -0.452590 2.363150 
					CHANNELS 3 Zrotation Yrotation Xrotation
					End Site
					{
						OFFSET 0.000000 0.000000 0.000000 
					}
				}
			}
		}
	}
	JOINT Spine
	{
		OFFSET 0.028270 2.035590 -0.193380 
		CHANNELS 3 Zrotation Yrotation Xrotation
		JOINT Spine1
		{
			OFFSET 0.056720 2.048850 -0.042750 
			CHANNELS 3 Zrotation Yrotation Xrotation
			JOINT Neck1
			{
				OFFSET -0.054170 1.746240 0.172020 
				CHANNELS 3 Zrotation Yrotation Xrotation
				JOINT Head
				{
					OFFSET 0.104070 1.761360 -0.123970 
					CHANNELS 3 Zrotation Yrotation Xrotation
					End Site
					{
						OFFSET 0.000000 0.000000 0.000000 
					}
				}
			}
			JOINT LeftArm
			{
				OFFSET 3.362410 1.200890 -0.311210 
				CHANNELS 3 Zrotation Yrotation Xrotation
				JOINT LeftForeArm
				{
					OFFSET 4.983000 -0.000000 -0.000000 
					CHANNELS 3 Zrotation Yrotation Xrotation
					JOINT LeftHand
					{
						OFFSET 3.483560 -0.000000 -0.000000 
						CHANNELS 3 Zrotation Yrotation Xrotation
						JOINT LeftHandIndex1
						{
							OFFSET 0.715260 -0.000000 -0.000000 
							CHANNELS 3 Zrotation Yrotation Xrotation
							End Site
							{
								OFFSET 0.000000 0.000000 0.000000 
							}
						}
					}
				}
			}
			JOINT RightArm
			{
				OFFSET -3.136600 1.374050 -0.404650 
				CHANNELS 3 Zrotation Yrotation Xrotation
				JOINT RightForeArm
				{
					OFFSET -5.241900 -0.000000 -0.000000 
					CHANNELS 3 Zrotation Yrotation Xrotation
					JOINT RightHand
					{
						OFFSET -3.444170 -0.000000 -0.000000 
						CHANNELS 3 Zrotation Yrotation Xrotation
						JOINT RightHandIndex1
						{
							OFFSET -0.622530 -0.000000 -0.000000 
							CHANNELS 3 Zrotation Yrotation Xrotation
							End Site
							{
								OFFSET 0.000000 0.000000 0.000000 
							}
						}
					}
				}
			}
		}
	}
}
MOTION
Frames: 16
Frame Time: 0.041667
10.359432 17.970051 25.981833 -178.069291 3.789289 178.280599 -18.012856 -20.066024 0.586142 -2.822458 6.687978 20.030797 -4.083971 14.179839 -6.538102 2.679000 -10.156400 -29.484700 28.373470 14.935448 4.734220 2.900705 -4.956712 17.872461 5.128937 -21.463867 -13.063517 -0.003400 -0.378100 1.038900 2.777529 1.927112 5.245050 -4.845532 0.637114 -14.049223 11.386619 -4.585750 21.709513 1.514300 -1.375500 7.355700 -90.898518 10.394032 31.061081 25.857694 -25.472517 -6.934637 1.388377 0.726392 12.289132 -7.125000 0.000000 0.000000 89.739827 -10.686898 40.994718 -24.018242 27.109422 -6.895807 0.765293 -0.500834 23.422750 7.125000 0.000000 0.000000 
10.358271 17.969006 25.982646 -178.068662 3.856938 178.273989 -18.018732 -20.007119 0.543893 -2.810358 6.711697 20.091165 -4.118697 14.274566 -6.497993 2.653800 -10.112400 -29.341500 28.378175 14.943149 4.727929 2.908211 -4.939310 17.806648 5.207324 -21.684689 -12.876000 -0.000100 0.073000 -0.200400 2.745273 1.956891 5.280850 -4.860007 0.650606 -14.066609 11.402457 -4.620706 21.693857 1.515900 -1.391400 7.354500 -90.881091 10.447580 31.100400 25.896842 -25.513038 -6.950564 1.385942 0.723468 12.309624 -7.125000 0.000000 0.000000 89.788569 -10.633892 40.844534 -24.013651 27.106715 -6.890872 0.766102 -0.498683 23.423070 7.125000 0.000000 0.000000 
10.359084 17.968193 25.982878 -178.066019 3.934456 178.242122 -18.022202 -19.891059 0.508396 -2.799736 6.727194 20.141007 -4.119271 14.276069 -6.481421 2.597400 -10.012900 -29.018500 28.388570 14.997620 4.764039 2.910785 -4.930390 17.785563 5.204032 -21.666210 -12.837706 -0.000700 0.168800 -0.463800 2.770930 1.986813 5.384922 -4.855351 0.670310 -14.073472 11.499769 -4.644464 21.653272 1.552500 -1.399900 7.347600 -90.863367 10.446111 31.175643 25.934647 -25.549041 -6.961223 1.383222 0.717603 12.242172 -7.125000 0.000000 0.000000 89.802665 -10.660906 40.675283 -24.104802 27.211909 -6.933399 0.762685 -0.498545 23.468329 7.125000 0.000000 0.000000 
10.359665 17.968890 25.982878 -178.081785 4.012706 178.252045 -18.025103 -19.748140 0.423085 -2.793141 6.740843 20.177607 -4.137237 14.327167 -6.489451 2.772800 -10.317800 -30.012200 28.350414 15.020154 4.728775 2.908052 -4.933527 17.796574 5.159000 -21.512613 -12.836162 0.000000 0.006100 -0.016900 2.763044 1.999460 5.495430 -4.847237 0.683217 -14.057343 11.627637 -4.636221 21.554219 1.598600 -1.391100 7.327100 -90.864211 10.405871 31.142909 25.967583 -25.586941 -6.975283 1.380490 0.716534 12.264540 -7.125000 0.000000 0.000000 89.780538 -10.592842 40.589605 -24.146895 27.264291 -6.960227 0.759039 -0.498096 23.520662 7.125000 0.000000 0.000000 
10.359200 17.968425 25.983226 -178.098182 3.985462 178.251005 -18.017015 -19.696740 0.379141 -2.791091 6.740228 20.176971 -4.116961 14.267860 -6.440699 2.863600 -10.470900 -30.515400 28.330025 14.999261 4.663394 2.895580 -4.964282 17.875790 5.164098 -21.532087 -12.865137 -0.000300 -0.114600 0.314900 2.691803 1.964709 5.623221 -4.850832 0.670599 -14.032752 11.739524 -4.602723 21.357399 1.631600 -1.373700 7.267300 -90.870567 10.366416 31.032876 25.966355 -25.591833 -6.975713 1.384805 0.714236 12.405865 -7.125000 0.000000 0.000000 89.765825 -10.452544 40.614401 -24.111665 27.227510 -6.948373 0.756949 -0.499025 23.548097 7.125000 0.000000 0.000000 
10.357923 17.968657 25.984503 -178.125812 3.899063 178.231063 -18.034969 -19.685288 0.378096 -2.790452 6.732757 20.161903 -4.067816 14.129393 -6.355560 2.816300 -10.391500 -30.254000 28.301838 14.962469 4.632372 2.879275 -5.003324 17.995647 5.133804 -21.466371 -13.056648 -0.001700 -0.268300 0.737100 2.663030 1.904019 5.687607 -4.825793 0.646437 -14.051977 11.696011 -4.567979 21.229572 1.612500 -1.363200 7.224200 -90.885960 10.361721 30.975155 25.977287 -25.609376 -6.982573 1.392013 0.707270 12.378705 -7.125000 0.000000 0.000000 89.750212 -10.425456 40.605735 -24.121681 27.242404 -6.956236 0.754285 -0.500184 23.598622 7.125000 0.000000 0.000000 
10.357110 17.967961 25.986593 -178.188862 3.863678 178.216912 -18.098079 -19.644165 0.364197 -2.789229 6.732167 20.163450 -4.034728 14.041925 -6.322355 2.791200 -10.349100 -30.114800 28.195755 14.903881 4.581504 2.861399 -5.036903 18.115376 5.010807 -21.099354 -13.298908 -0.009700 -0.635300 1.745700 2.724259 1.848814 5.693050 -4.762448 0.630462 -14.107213 11.572265 -4.519800 21.193781 1.578600 -1.350900 7.211400 -90.977881 10.347619 30.836792 25.957320 -25.590886 -6.974672 1.389700 0.711981 12.388347 -7.125000 0.000000 0.000000 89.677578 -10.460275 40.560550 -24.119508 27.236560 -6.949234 0.752829 -0.506911 23.841959 7.125000 0.000000 0.000000 
10.356530 17.965638 25.989612 -178.171286 3.874892 178.283333 -18.037577 -19.591236 0.247844 -2.786128 6.736788 20.167816 -4.015861 13.982032 -6.258639 2.736900 -10.256500 -29.811500 28.166592 14.868973 4.416827 2.847283 -5.075774 18.198639 4.963034 -20.938276 -13.277685 -0.010600 -0.665200 1.828100 2.790507 1.832277 5.660006 -4.761775 0.622125 -14.112373 11.477615 -4.486981 21.139962 1.548500 -1.343300 7.193700 -91.058265 10.336926 30.661415 25.942636 -25.572974 -6.962223 1.387096 0.712959 12.602839 -7.125000 0.000000 0.000000 89.648822 -10.483347 40.461040 -24.038791 27.127239 -6.892500 0.748118 -0.525627 24.555303 7.125000 0.000000 0.000000 
10.357226 17.963781 25.992515 -178.079010 3.920010 178.378141 -17.873201 -19.485665 0.063401 -2.777118 6.749207 20.193722 -3.976391 13.857596 -6.173719 2.699700 -10.192200 -29.601400 28.254290 14.903844 4.281918 2.845712 -5.099422 18.216775 5.007058 -21.070978 -13.149689 -0.005800 -0.491300 1.349900 2.825261 1.846017 5.630010 -4.801954 0.621020 -14.099573 11.452570 -4.475998 21.065679 1.532200 -1.338900 7.171600 -91.043512 10.346624 30.564273 25.964099 -25.592334 -6.961504 1.394940 0.697690 12.715445 -7.125000 0.000000 0.000000 89.699144 -10.464364 40.334757 -23.965714 27.031753 -6.844966 0.740176 -0.541636 25.191814 7.125000 0.000000 0.000000 
10.358620 17.965058 25.993676 -178.067193 3.960079 178.400982 -17.813826 -19.352198 -0.060861 -2.763192 6.770698 20.255866 -3.897123 13.638127 -6.145241 2.668000 -10.137100 -29.421900 28.287131 14.960312 4.283347 2.849949 -5.095710 18.195479 5.045909 -21.192066 -13.100647 -0.005200 -0.464000 1.275000 2.761753 1.849213 5.649825 -4.805156 0.622329 -14.124721 11.396146 -4.464966 20.949556 1.500800 -1.337500 7.132400 -90.998319 10.336397 30.523102 25.955785 -25.583732 -6.952198 1.404394 0.686716 12.633534 -7.125000 0.000000 0.000000 89.739730 -10.407834 40.231847 -24.016127 27.093879 -6.869135 0.736275 -0.539029 25.026720 7.125000 0.000000 0.000000 
10.358271 17.969006 25.994257 -178.063613 3.957162 178.447568 -17.763957 -19.246536 -0.194266 -2.748603 6.794742 20.322492 -3.810175 13.398687 -6.112243 2.573900 -9.971000 -28.883000 28.279980 14.920019 4.216266 2.851461 -5.090524 18.162411 5.088310 -21.295190 -12.918086 -0.000800 -0.187600 0.515300 2.685130 1.836795 5.682829 -4.812834 0.616440 -14.111883 11.334799 -4.442508 20.774368 1.464700 -1.332400 7.074300 -90.993764 10.275759 30.422730 25.900472 -25.531188 -6.931376 1.409917 0.691377 12.636227 -7.125000 0.000000 0.000000 89.740123 -10.420759 40.251213 -23.844368 26.868363 -6.756379 0.720796 -0.576507 26.347960 7.125000 0.000000 0.000000 
10.357691 17.970399 25.995882 -178.069762 3.992388 178.541682 -17.724718 -19.133035 -0.372718 -2.736323 6.825290 20.391083 -3.801452 13.375216 -6.106102 2.581900 -9.985200 -28.928900 28.235599 14.900257 4.100241 2.857836 -5.078957 18.104870 5.093927 -21.279034 -12.757574 -0.000100 -0.072900 0.200300 2.640854 1.838399 5.649686 -4.818100 0.620796 -14.075279 11.489663 -4.381436 20.522975 1.511200 -1.302500 6.983900 -91.016007 10.253073 30.223449 25.838944 -25.475121 -6.913101 1.414698 0.701613 12.745700 -7.125000 0.000000 0.000000 89.764819 -10.362034 40.054705 -24.107177 27.195632 -6.912931 0.727985 -0.540067 25.055505 7.125000 0.000000 0.000000 
10.356297 17.970167 25.996463 -178.040272 4.020968 178.608903 -17.688283 -19.112358 -0.475005 -2.726525 6.854728 20.456410 -3.845475 13.496531 -6.141037 2.676800 -10.152500 -29.472100 28.236930 14.945813 4.076247 2.869119 -5.060946 18.055162 5.039006 -21.115662 -12.844080 -0.004700 -0.444200 1.220400 2.653883 1.833768 5.598847 -4.846179 0.616650 -14.066728 11.650580 -4.321917 20.310533 1.565300 -1.273700 6.906100 -91.005134 10.305943 30.105168 25.857099 -25.503603 -6.929797 1.416015 0.705782 12.681817 -7.125000 0.000000 0.000000 89.748174 -10.373365 40.005015 -24.262397 27.387950 -7.013003 0.725037 -0.523703 24.531306 7.125000 0.000000 0.000000 
10.353279 17.970515 25.996347 -177.924662 4.026255 178.608096 -17.578348 -19.081793 -0.530817 -2.711489 6.876387 20.523074 -3.820434 13.419315 -6.123826 2.700200 -10.193100 -29.604400 28.341968 14.949762 4.103907 2.873020 -5.055758 18.049819 4.993599 -20.997882 -12.938539 -0.011100 -0.680800 1.870800 2.761266 1.825400 5.683833 -4.915195 0.603358 -14.071465 11.672125 -4.271791 20.102776 1.569500 -1.256100 6.838300 -90.966162 10.211132 30.125017 25.824005 -25.472498 -6.913758 1.416773 0.707772 12.502765 -7.125000 0.000000 0.000000 89.712789 -10.316548 39.990884 -24.303070 27.440337 -7.044205 0.720178 -0.520754 24.437755 7.125000 0.000000 0.000000 
10.351421 17.972025 25.997740 -177.914305 4.134372 178.655340 -17.540426 -18.942514 -0.676746 -2.696038 6.905128 20.601192 -3.766449 13.272655 -6.123391 2.658500 -10.120600 -29.368100 28.315731 14.981459 4.037309 2.873752 -5.055370 18.034061 4.980721 -20.933907 -12.843152 -0.009300 -0.622900 1.711600 2.777081 1.869466 5.718717 -4.931248 0.626005 -14.073974 11.666953 -4.220438 19.887324 1.562800 -1.239500 6.765000 -90.946684 10.075885 30.127918 25.751069 -25.394027 -6.876348 1.418740 0.710069 12.448072 -7.125000 0.000000 0.000000 89.699471 -10.270644 39.829658 -24.319567 27.451771 -7.041332 0.715838 -0.529044 24.836057 7.125000 0.000000 0.000000 
10.350840 17.973650 25.999598 -177.934515 4.248923 178.767998 -17.522553 -18.805047 -0.876653 -2.684009 6.936460 20.671618 -3.749591 13.229596 -6.129507 2.653500 -10.111900 -29.339800 28.236408 15.021010 3.896074 2.874500 -5.060287 18.015003 4.970112 -20.863796 -12.700434 -0.007000 -0.540100 1.484200 2.829187 1.903305 5.625015 -4.909061 0.648734 -14.084050 11.688520 -4.187202 19.760413 1.572400 -1.228000 6.722200 -90.996081 10.108391 30.003388 25.760667 -25.402280 -6.878254 1.414845 0.712031 12.574021 -7.125000 0.000000 0.000000 89.657298 -10.255297 39.730656 -24.344356 27.475377 -7.048257 0.711999 -0.534803 25.154842 7.125000 0.000000 0.000000 
